<svg width="271" height="333" viewBox="0 0 271 333" fill="none" xmlns="http://www.w3.org/2000/svg">
<g clip-path="url(#clip0_1_4)">
<path d="M262.377 113.52C260.446 115.018 226.355 134.232 226.355 176.956C226.355 226.373 269.735 243.856 271.033 244.289C270.834 245.354 264.142 268.232 248.161 291.542C233.912 312.054 219.031 332.534 196.392 332.534C173.753 332.534 167.927 319.38 141.792 319.38C116.324 319.38 107.268 332.967 86.5602 332.967C65.8523 332.967 51.4034 313.986 34.7905 290.676C15.5475 263.303 0 220.779 0 180.419C0 115.684 42.0816 81.3519 83.4973 81.3519C105.504 81.3519 123.848 95.8041 137.664 95.8041C150.815 95.8041 171.323 80.4861 196.358 80.4861C205.847 80.4861 239.938 81.3519 262.377 113.52ZM184.473 53.0802C194.827 40.7925 202.151 23.7429 202.151 6.6933C202.151 4.329 201.952 1.9314 201.519 0C184.673 0.6327 164.631 11.2221 152.546 25.2414C143.057 36.0306 134.202 53.0802 134.202 70.3629C134.202 72.9603 134.634 75.5577 134.834 76.3902C135.9 76.59 137.631 76.8231 139.362 76.8231C154.477 76.8231 173.487 66.6999 184.473 53.0802Z" fill="white"/>
</g>
<defs>
<clipPath id="clip0_1_4">
<rect width="271" height="333" fill="white"/>
</clipPath>
</defs>
</svg>
